<mxfile host="app.diagrams.net" agent="Mozilla/5.0 (Windows NT 10.0; Win64; x64) AppleWebKit/537.36 (KHTML, like Gecko) Chrome/128.0.0.0 Safari/537.36" version="24.7.13">
  <diagram name="Halaman-1" id="TEYvTjvAtgAzj7A7iMoz">
    <mxGraphModel dx="2501" dy="738" grid="1" gridSize="10" guides="1" tooltips="1" connect="1" arrows="1" fold="1" page="1" pageScale="1" pageWidth="827" pageHeight="1169" math="0" shadow="0">
      <root>
        <mxCell id="0" />
        <mxCell id="1" parent="0" />
        <mxCell id="CTEpIo-UwfcH-72cWXgF-37" value="" style="rounded=0;whiteSpace=wrap;html=1;" parent="1" vertex="1">
          <mxGeometry x="-620" y="60" width="400" height="680" as="geometry" />
        </mxCell>
        <mxCell id="CTEpIo-UwfcH-72cWXgF-2" value="user" style="shape=umlActor;verticalLabelPosition=bottom;verticalAlign=top;html=1;outlineConnect=0;" parent="1" vertex="1">
          <mxGeometry x="-740" y="260" width="70" height="130" as="geometry" />
        </mxCell>
        <mxCell id="CTEpIo-UwfcH-72cWXgF-3" value="guru" style="shape=umlActor;verticalLabelPosition=bottom;verticalAlign=top;html=1;outlineConnect=0;" parent="1" vertex="1">
          <mxGeometry x="-170" y="260" width="70" height="130" as="geometry" />
        </mxCell>
        <mxCell id="CTEpIo-UwfcH-72cWXgF-24" value="" style="endArrow=classic;html=1;rounded=0;entryX=0;entryY=0.5;entryDx=0;entryDy=0;exitX=1;exitY=0.3333333333333333;exitDx=0;exitDy=0;exitPerimeter=0;" parent="1" source="CTEpIo-UwfcH-72cWXgF-2" target="CTEpIo-UwfcH-72cWXgF-6" edge="1">
          <mxGeometry width="50" height="50" relative="1" as="geometry">
            <mxPoint x="-620" y="300" as="sourcePoint" />
            <mxPoint x="-480" y="190" as="targetPoint" />
            <Array as="points">
              <mxPoint x="-570" y="130" />
            </Array>
          </mxGeometry>
        </mxCell>
        <mxCell id="CTEpIo-UwfcH-72cWXgF-28" value="" style="endArrow=classic;html=1;rounded=0;entryX=0;entryY=0.5;entryDx=0;entryDy=0;exitX=1;exitY=0.3333333333333333;exitDx=0;exitDy=0;exitPerimeter=0;" parent="1" source="CTEpIo-UwfcH-72cWXgF-2" target="CTEpIo-UwfcH-72cWXgF-71" edge="1">
          <mxGeometry width="50" height="50" relative="1" as="geometry">
            <mxPoint x="-660" y="330" as="sourcePoint" />
            <mxPoint x="-480" y="570" as="targetPoint" />
            <Array as="points">
              <mxPoint x="-570" y="240" />
            </Array>
          </mxGeometry>
        </mxCell>
        <mxCell id="CTEpIo-UwfcH-72cWXgF-29" value="" style="endArrow=classic;html=1;rounded=0;entryX=1;entryY=0.5;entryDx=0;entryDy=0;exitX=0;exitY=0.3333333333333333;exitDx=0;exitDy=0;exitPerimeter=0;" parent="1" source="CTEpIo-UwfcH-72cWXgF-3" target="CTEpIo-UwfcH-72cWXgF-6" edge="1">
          <mxGeometry width="50" height="50" relative="1" as="geometry">
            <mxPoint x="-420" y="330" as="sourcePoint" />
            <mxPoint x="-360" y="190" as="targetPoint" />
            <Array as="points">
              <mxPoint x="-270" y="130" />
            </Array>
          </mxGeometry>
        </mxCell>
        <mxCell id="CTEpIo-UwfcH-72cWXgF-52" value="" style="group" parent="1" vertex="1" connectable="0">
          <mxGeometry x="-480" y="90" width="120" height="80" as="geometry" />
        </mxCell>
        <mxCell id="CTEpIo-UwfcH-72cWXgF-6" value="" style="ellipse;whiteSpace=wrap;html=1;" parent="CTEpIo-UwfcH-72cWXgF-52" vertex="1">
          <mxGeometry width="120" height="80" as="geometry" />
        </mxCell>
        <mxCell id="CTEpIo-UwfcH-72cWXgF-9" value="Login" style="text;html=1;align=center;verticalAlign=middle;whiteSpace=wrap;rounded=0;" parent="CTEpIo-UwfcH-72cWXgF-52" vertex="1">
          <mxGeometry x="30" y="25" width="60" height="30" as="geometry" />
        </mxCell>
        <mxCell id="CTEpIo-UwfcH-72cWXgF-60" value="" style="endArrow=classic;html=1;rounded=0;entryX=1;entryY=0.5;entryDx=0;entryDy=0;exitX=0;exitY=1;exitDx=0;exitDy=0;exitPerimeter=0;" parent="1" target="CTEpIo-UwfcH-72cWXgF-74" edge="1" source="CTEpIo-UwfcH-72cWXgF-3">
          <mxGeometry width="50" height="50" relative="1" as="geometry">
            <mxPoint x="-160" y="378" as="sourcePoint" />
            <mxPoint x="-337.9999999999998" y="680" as="targetPoint" />
            <Array as="points">
              <mxPoint x="-260" y="680" />
            </Array>
          </mxGeometry>
        </mxCell>
        <mxCell id="CTEpIo-UwfcH-72cWXgF-61" value="" style="endArrow=classic;html=1;rounded=0;entryX=0;entryY=0.5;entryDx=0;entryDy=0;exitX=1;exitY=1;exitDx=0;exitDy=0;exitPerimeter=0;" parent="1" target="CTEpIo-UwfcH-72cWXgF-74" edge="1" source="CTEpIo-UwfcH-72cWXgF-2">
          <mxGeometry width="50" height="50" relative="1" as="geometry">
            <mxPoint x="-670" y="390" as="sourcePoint" />
            <mxPoint x="-488" y="680" as="targetPoint" />
            <Array as="points">
              <mxPoint x="-570" y="680" />
            </Array>
          </mxGeometry>
        </mxCell>
        <mxCell id="CTEpIo-UwfcH-72cWXgF-70" value="" style="group" parent="1" vertex="1" connectable="0">
          <mxGeometry x="-480" y="200" width="120" height="80" as="geometry" />
        </mxCell>
        <mxCell id="CTEpIo-UwfcH-72cWXgF-71" value="" style="ellipse;whiteSpace=wrap;html=1;" parent="CTEpIo-UwfcH-72cWXgF-70" vertex="1">
          <mxGeometry width="120" height="80" as="geometry" />
        </mxCell>
        <mxCell id="CTEpIo-UwfcH-72cWXgF-72" value="Peminjaman" style="text;html=1;align=center;verticalAlign=middle;whiteSpace=wrap;rounded=0;" parent="CTEpIo-UwfcH-72cWXgF-70" vertex="1">
          <mxGeometry x="30" y="25" width="60" height="30" as="geometry" />
        </mxCell>
        <mxCell id="CTEpIo-UwfcH-72cWXgF-73" value="" style="group" parent="1" vertex="1" connectable="0">
          <mxGeometry x="-480" y="640" width="120" height="80" as="geometry" />
        </mxCell>
        <mxCell id="CTEpIo-UwfcH-72cWXgF-74" value="" style="ellipse;whiteSpace=wrap;html=1;" parent="CTEpIo-UwfcH-72cWXgF-73" vertex="1">
          <mxGeometry width="120" height="80" as="geometry" />
        </mxCell>
        <mxCell id="CTEpIo-UwfcH-72cWXgF-75" value="Log out" style="text;html=1;align=center;verticalAlign=middle;whiteSpace=wrap;rounded=0;" parent="CTEpIo-UwfcH-72cWXgF-73" vertex="1">
          <mxGeometry x="30" y="25" width="60" height="30" as="geometry" />
        </mxCell>
        <mxCell id="-ZTHphxvlUzSBznsa0Q1-7" value="" style="group" vertex="1" connectable="0" parent="1">
          <mxGeometry x="-480" y="400" width="120" height="80" as="geometry" />
        </mxCell>
        <mxCell id="-ZTHphxvlUzSBznsa0Q1-8" value="" style="ellipse;whiteSpace=wrap;html=1;" vertex="1" parent="-ZTHphxvlUzSBznsa0Q1-7">
          <mxGeometry width="120" height="80" as="geometry" />
        </mxCell>
        <mxCell id="-ZTHphxvlUzSBznsa0Q1-9" value="Pengecekan" style="text;html=1;align=center;verticalAlign=middle;whiteSpace=wrap;rounded=0;" vertex="1" parent="-ZTHphxvlUzSBznsa0Q1-7">
          <mxGeometry x="30" y="25" width="60" height="30" as="geometry" />
        </mxCell>
        <mxCell id="-ZTHphxvlUzSBznsa0Q1-10" value="" style="endArrow=classic;html=1;rounded=0;entryX=0.975;entryY=0.7;entryDx=0;entryDy=0;entryPerimeter=0;exitX=0;exitY=1;exitDx=0;exitDy=0;exitPerimeter=0;" edge="1" parent="1" source="CTEpIo-UwfcH-72cWXgF-3" target="-ZTHphxvlUzSBznsa0Q1-8">
          <mxGeometry width="50" height="50" relative="1" as="geometry">
            <mxPoint x="-160" y="365" as="sourcePoint" />
            <mxPoint x="-350" y="200" as="targetPoint" />
            <Array as="points">
              <mxPoint x="-260" y="456" />
            </Array>
          </mxGeometry>
        </mxCell>
        <mxCell id="-ZTHphxvlUzSBznsa0Q1-25" style="edgeStyle=orthogonalEdgeStyle;rounded=0;orthogonalLoop=1;jettySize=auto;html=1;entryX=0;entryY=0.5;entryDx=0;entryDy=0;" edge="1" parent="1" source="-ZTHphxvlUzSBznsa0Q1-12" target="-ZTHphxvlUzSBznsa0Q1-8">
          <mxGeometry relative="1" as="geometry" />
        </mxCell>
        <mxCell id="-ZTHphxvlUzSBznsa0Q1-12" value="" style="rounded=1;whiteSpace=wrap;html=1;" vertex="1" parent="1">
          <mxGeometry x="-570" y="310" width="120" height="60" as="geometry" />
        </mxCell>
        <mxCell id="-ZTHphxvlUzSBznsa0Q1-26" style="edgeStyle=orthogonalEdgeStyle;rounded=0;orthogonalLoop=1;jettySize=auto;html=1;entryX=1;entryY=0.5;entryDx=0;entryDy=0;" edge="1" parent="1" source="-ZTHphxvlUzSBznsa0Q1-13" target="-ZTHphxvlUzSBznsa0Q1-8">
          <mxGeometry relative="1" as="geometry">
            <Array as="points">
              <mxPoint x="-330" y="440" />
            </Array>
          </mxGeometry>
        </mxCell>
        <mxCell id="-ZTHphxvlUzSBznsa0Q1-13" value="" style="rounded=1;whiteSpace=wrap;html=1;" vertex="1" parent="1">
          <mxGeometry x="-400" y="310" width="120" height="60" as="geometry" />
        </mxCell>
        <mxCell id="-ZTHphxvlUzSBznsa0Q1-14" value="" style="endArrow=classic;html=1;rounded=0;entryX=0.5;entryY=0;entryDx=0;entryDy=0;exitX=0;exitY=1;exitDx=0;exitDy=0;" edge="1" parent="1" source="CTEpIo-UwfcH-72cWXgF-71" target="-ZTHphxvlUzSBznsa0Q1-12">
          <mxGeometry width="50" height="50" relative="1" as="geometry">
            <mxPoint x="-560" y="480" as="sourcePoint" />
            <mxPoint x="-510" y="430" as="targetPoint" />
          </mxGeometry>
        </mxCell>
        <mxCell id="-ZTHphxvlUzSBznsa0Q1-15" value="" style="endArrow=classic;html=1;rounded=0;entryX=0.5;entryY=0;entryDx=0;entryDy=0;exitX=1;exitY=1;exitDx=0;exitDy=0;" edge="1" parent="1" source="CTEpIo-UwfcH-72cWXgF-71" target="-ZTHphxvlUzSBznsa0Q1-13">
          <mxGeometry width="50" height="50" relative="1" as="geometry">
            <mxPoint x="-422" y="304" as="sourcePoint" />
            <mxPoint x="-470" y="346" as="targetPoint" />
          </mxGeometry>
        </mxCell>
        <mxCell id="-ZTHphxvlUzSBznsa0Q1-23" value="Pengembalian" style="text;html=1;align=center;verticalAlign=middle;whiteSpace=wrap;rounded=0;" vertex="1" parent="1">
          <mxGeometry x="-540" y="325" width="60" height="30" as="geometry" />
        </mxCell>
        <mxCell id="-ZTHphxvlUzSBznsa0Q1-24" value="Meminjam" style="text;html=1;align=center;verticalAlign=middle;whiteSpace=wrap;rounded=0;" vertex="1" parent="1">
          <mxGeometry x="-370" y="325" width="60" height="30" as="geometry" />
        </mxCell>
        <mxCell id="-ZTHphxvlUzSBznsa0Q1-27" value="" style="rounded=1;whiteSpace=wrap;html=1;" vertex="1" parent="1">
          <mxGeometry x="-360" y="70" width="120" height="30" as="geometry" />
        </mxCell>
        <mxCell id="-ZTHphxvlUzSBznsa0Q1-28" value="Buat akun" style="text;html=1;align=center;verticalAlign=middle;whiteSpace=wrap;rounded=0;" vertex="1" parent="1">
          <mxGeometry x="-330" y="70" width="60" height="30" as="geometry" />
        </mxCell>
        <mxCell id="-ZTHphxvlUzSBznsa0Q1-29" value="" style="endArrow=classic;html=1;rounded=0;exitX=0.5;exitY=0;exitDx=0;exitDy=0;entryX=0;entryY=0.5;entryDx=0;entryDy=0;" edge="1" parent="1" source="CTEpIo-UwfcH-72cWXgF-6" target="-ZTHphxvlUzSBznsa0Q1-27">
          <mxGeometry width="50" height="50" relative="1" as="geometry">
            <mxPoint x="-450" y="60" as="sourcePoint" />
            <mxPoint x="-400" y="10" as="targetPoint" />
            <Array as="points">
              <mxPoint x="-390" y="80" />
            </Array>
          </mxGeometry>
        </mxCell>
        <mxCell id="-ZTHphxvlUzSBznsa0Q1-30" value="" style="group" vertex="1" connectable="0" parent="1">
          <mxGeometry x="-480" y="505" width="120" height="80" as="geometry" />
        </mxCell>
        <mxCell id="-ZTHphxvlUzSBznsa0Q1-31" value="" style="ellipse;whiteSpace=wrap;html=1;" vertex="1" parent="-ZTHphxvlUzSBznsa0Q1-30">
          <mxGeometry width="120" height="80" as="geometry" />
        </mxCell>
        <mxCell id="-ZTHphxvlUzSBznsa0Q1-32" value="Riwayat" style="text;html=1;align=center;verticalAlign=middle;whiteSpace=wrap;rounded=0;" vertex="1" parent="-ZTHphxvlUzSBznsa0Q1-30">
          <mxGeometry x="30" y="25" width="60" height="30" as="geometry" />
        </mxCell>
        <mxCell id="-ZTHphxvlUzSBznsa0Q1-33" value="" style="endArrow=classic;html=1;rounded=0;entryX=1;entryY=0.5;entryDx=0;entryDy=0;exitX=0;exitY=1;exitDx=0;exitDy=0;exitPerimeter=0;" edge="1" parent="1" source="CTEpIo-UwfcH-72cWXgF-3" target="-ZTHphxvlUzSBznsa0Q1-31">
          <mxGeometry width="50" height="50" relative="1" as="geometry">
            <mxPoint x="-177" y="420" as="sourcePoint" />
            <mxPoint x="-370" y="517" as="targetPoint" />
            <Array as="points">
              <mxPoint x="-260" y="545" />
            </Array>
          </mxGeometry>
        </mxCell>
        <mxCell id="-ZTHphxvlUzSBznsa0Q1-34" style="edgeStyle=orthogonalEdgeStyle;rounded=0;orthogonalLoop=1;jettySize=auto;html=1;entryX=0.5;entryY=0;entryDx=0;entryDy=0;" edge="1" parent="1" source="CTEpIo-UwfcH-72cWXgF-6" target="CTEpIo-UwfcH-72cWXgF-71">
          <mxGeometry relative="1" as="geometry" />
        </mxCell>
        <mxCell id="-ZTHphxvlUzSBznsa0Q1-35" style="edgeStyle=orthogonalEdgeStyle;rounded=0;orthogonalLoop=1;jettySize=auto;html=1;entryX=0.5;entryY=0;entryDx=0;entryDy=0;" edge="1" parent="1" source="-ZTHphxvlUzSBznsa0Q1-8" target="-ZTHphxvlUzSBznsa0Q1-31">
          <mxGeometry relative="1" as="geometry" />
        </mxCell>
        <mxCell id="-ZTHphxvlUzSBznsa0Q1-36" style="edgeStyle=orthogonalEdgeStyle;rounded=0;orthogonalLoop=1;jettySize=auto;html=1;entryX=0.5;entryY=0;entryDx=0;entryDy=0;" edge="1" parent="1" source="-ZTHphxvlUzSBznsa0Q1-31" target="CTEpIo-UwfcH-72cWXgF-74">
          <mxGeometry relative="1" as="geometry" />
        </mxCell>
      </root>
    </mxGraphModel>
  </diagram>
</mxfile>
